<svg version="1.1" xmlns="http://www.w3.org/2000/svg" xmlns:xlink="http://www.w3.org/1999/xlink" x="0px" y="0px"
	 viewBox="0 0 100 100" style="enable-background:new 0 0 100 100;" xml:space="preserve">
<g id="Vrstva_41">
	<g>
		<g>
			<path fill="#ffffff" d="M43.5,85.5c-0.828,0-1.5-0.672-1.5-1.5v-8c0-0.828,0.672-1.5,1.5-1.5c0.828,0,1.5,0.672,1.5,1.5v8
				C45,84.828,44.328,85.5,43.5,85.5z"/>
		</g>
		<g>
			<path fill="#ffffff" d="M57.5,85.5c-0.828,0-1.5-0.672-1.5-1.5v-8c0-0.828,0.672-1.5,1.5-1.5c0.828,0,1.5,0.672,1.5,1.5v8
				C59,84.828,58.328,85.5,57.5,85.5z"/>
		</g>
		<g>
			<path fill="#ffffff" d="M50.5,64.5c-0.391,0-0.78-0.16-1.061-0.44C49.16,63.78,49,63.39,49,63c0-0.4,0.16-0.78,0.439-1.061
				c0.561-0.56,1.561-0.56,2.12,0C51.84,62.22,52,62.6,52,63c0,0.39-0.16,0.78-0.44,1.06C51.28,64.34,50.89,64.5,50.5,64.5z"/>
		</g>
		<g>
			<path fill="#ffffff" d="M64,86H37c-0.828,0-1.5-0.672-1.5-1.5S36.172,83,37,83h27c0.828,0,1.5,0.672,1.5,1.5S64.828,86,64,86z"/>
		</g>
		<g>
			<path fill="#ffffff" d="M85.5,71h-71C11.468,71,9,68.532,9,65.5v-46c0-3.032,2.468-5.5,5.5-5.5h71c3.032,0,5.5,2.468,5.5,5.5v46
				C91,68.532,88.532,71,85.5,71z M14.5,17c-1.379,0-2.5,1.121-2.5,2.5v46c0,1.379,1.121,2.5,2.5,2.5h71c1.379,0,2.5-1.121,2.5-2.5
				v-46c0-1.379-1.121-2.5-2.5-2.5H14.5z"/>
		</g>
		<g>
			<path fill="#ffffff" d="M88,58H11c-0.828,0-1.5-0.672-1.5-1.5S10.172,55,11,55h77c0.828,0,1.5,0.672,1.5,1.5S88.828,58,88,58z"/>
		</g>
	</g>
</g>
<script  type="text/javascript">
    <![CDATA[
         var c=window.location.search.split('color=')[1]; c=parseInt(c,16); if(!isNaN(c)){c=c.toString(16);var p=document.getElementsByTagName('path');for(var i=0,l=p.length;i<l;i++){var s=p[i].style;s.fill='#'+c;} var p2=document.getElementsByTagName('polygon');for(var i=0,l=p2.length;i<l;i++){var s=p2[i].style;s.fill='#'+c;} var p3=document.getElementsByTagName('circle');for(var i=0,l=p3.length;i<l;i++){var s=p3[i].style;s.fill='#'+c;} }
        ]]>
</script>
</svg>
